<?xml version="1.0" encoding="utf-8"?>
<!-- Generator: Adobe Illustrator 26.2.1, SVG Export Plug-In . SVG Version: 6.00 Build 0)  -->
<svg version="1.1" baseProfile="tiny" id="Layer_1" xmlns="http://www.w3.org/2000/svg" xmlns:xlink="http://www.w3.org/1999/xlink"
	 x="0px" y="0px" viewBox="0 0 400 400" overflow="visible" xml:space="preserve">
<path d="M324.42,171.17h-30c-13.8,0-26.3,5.59-35.35,14.64c-2.49,2.49-4.73,5.25-6.65,8.23v-0.76c0-21.03-17.05-38.07-38.08-38.07
	h-32.11v-14.78c1.83,2.21,4.59,3.61,7.69,3.61h3.91c3.36,0,6.09-2.72,6.09-6.08v-7.83c0-3.36-2.73-6.09-6.09-6.09h-3.91
	c-2.76,0-5.26,1.12-7.07,2.93c-0.22,0.22-0.42,0.44-0.62,0.68v-2.03c0-7.04-5.71-12.74-12.75-12.74h-7.74
	c15.36-4.11,26.68-18.12,26.68-34.78c0-19.89-16.12-36-36-36c-19.89,0-36,16.11-36,36c0,16.66,11.31,30.67,26.68,34.78h-7.75
	c-7.04,0-12.75,5.7-12.75,12.74v29.59h-16.27c0-1.41-0.57-2.69-1.49-3.61c-0.92-0.92-2.2-1.49-3.6-1.49h-6.48
	c-2.81,0-5.09,2.28-5.09,5.1h0.82c-21.03,0-38.07,17.04-38.07,38.07v55.77c0,21.03,17.04,38.07,38.07,38.07h42.82v20.32
	c0,5.52,4.48,10,10,10h18.22c5.52,0,10-4.48,10-10v-20.32h42.81c21.03,0,38.08-17.04,38.08-38.07v-0.75
	c8.9,13.76,24.39,22.87,42,22.87h30c11.05,0,20-8.96,20-20v-60C344.42,180.12,335.47,171.17,324.42,171.17z M137.42,130.89
	c0-3.78,3.06-6.85,6.84-6.85h18.16c2.76,0,5,2.24,5,5v10c0,2.77-2.24,5-5,5h-18.16c-3.78,0-6.84-3.06-6.84-6.84V130.89z
	 M202.41,241.17c0,16.56-13.43,30-30,30h-20c-27.61,0-50-22.39-50-50c0-13.81,5.6-26.31,14.65-35.36
	c9.04-9.05,21.54-14.64,35.35-14.64h20c16.57,0,30,13.43,30,30V241.17z"/>
<path d="M170.2,258.67h-17.78c-20.71,0-37.5-16.79-37.5-37.5v0c0-20.71,16.79-37.5,37.5-37.5h17.78c10.89,0,19.72,8.83,19.72,19.72
	v35.56C189.92,249.84,181.09,258.67,170.2,258.67z"/>
</svg>
